<?xml version="1.0" encoding="utf-8"?>
<!-- Generator: Adobe Illustrator 26.0.1, SVG Export Plug-In . SVG Version: 6.00 Build 0)  -->
<svg version="1.1" id="Capa_1" xmlns="http://www.w3.org/2000/svg" xmlns:xlink="http://www.w3.org/1999/xlink" x="0px" y="0px"
	 viewBox="0 0 99 99" enable-background="new 0 0 99 99" xml:space="preserve">
<g>
	<polygon points="59.9,35.6 51.7,48.9 30.5,83.4 38.5,49.2 25.4,49.6 33.5,36.3 54.7,1.8 46.7,36 49.3,35.9 	"/>
</g>
<g>
	<path d="M67.4,66.5c-0.3,0.3-0.6,0.6-0.9,0.9c0.1-0.2,0.3-0.4,0.4-0.5C67.1,66.8,67.3,66.6,67.4,66.5z"/>
	<path d="M96.1,84.5c-2.1-2.1-5.2-2.8-7.9-2.1L75.5,69.7c6.1-7.4,9.8-16.8,9.8-27.1C85.2,19.1,66.1,0,42.6,0C19.1,0,0,19.1,0,42.6
		c0,23.5,19.1,42.6,42.6,42.6c10.3,0,19.7-3.7,27.1-9.8l12.7,12.7c-0.7,2.7,0,5.7,2.1,7.9l2.9,2.9L99,87.5L96.1,84.5z M67.4,66.5
		c-0.3,0.3-0.6,0.6-0.9,0.9c-6.2,6-14.6,9.6-23.9,9.6c-19,0-34.5-15.5-34.5-34.5c0-19,15.5-34.5,34.5-34.5c19,0,34.5,15.5,34.5,34.5
		C77.1,51.9,73.4,60.3,67.4,66.5z"/>
</g>
</svg>
