<?xml version="1.0" encoding="utf-8"?>
<!-- Generator: Adobe Illustrator 26.0.1, SVG Export Plug-In . SVG Version: 6.00 Build 0)  -->
<svg version="1.1" id="Layer_1" xmlns="http://www.w3.org/2000/svg" xmlns:xlink="http://www.w3.org/1999/xlink" x="0px" y="0px"
	 viewBox="0 0 1000 1000" enable-background="new 0 0 1000 1000" xml:space="preserve">
<g>
	<g>
		
			<radialGradient id="SVGID_1_" cx="832.9127" cy="249.4832" r="445.3288" fx="1215.2289" fy="248.2139" gradientTransform="matrix(0.8377 -0.5462 1.2737 1.9536 -496.0606 454.873)" gradientUnits="userSpaceOnUse">
			<stop  offset="3.745849e-02" style="stop-color:#D51E69"/>
			<stop  offset="0.1445" style="stop-color:#B41E7C"/>
			<stop  offset="0.2727" style="stop-color:#921D90"/>
			<stop  offset="0.3423" style="stop-color:#851D97"/>
			<stop  offset="0.4122" style="stop-color:#7C209D"/>
			<stop  offset="0.526" style="stop-color:#6426AE"/>
			<stop  offset="0.6508" style="stop-color:#4230C5"/>
			<stop  offset="0.7123" style="stop-color:#3C39CC"/>
			<stop  offset="0.8102" style="stop-color:#2A50E0"/>
			<stop  offset="0.8792" style="stop-color:#1B64F2"/>
		</radialGradient>
		<polygon fill="url(#SVGID_1_)" points="852.1,296.7 852.1,703.3 500,906.6 147.9,703.3 147.9,296.7 500,93.4 		"/>
		
			<radialGradient id="SVGID_00000160166773578265496920000017749501836101986742_" cx="837.3673" cy="246.3415" r="547.4185" fx="1307.3278" fy="244.7812" gradientTransform="matrix(0.8377 -0.5462 1.2737 1.9536 -491.6399 460.0742)" gradientUnits="userSpaceOnUse">
			<stop  offset="3.745849e-02" style="stop-color:#D51E69"/>
			<stop  offset="0.1445" style="stop-color:#B41E7C"/>
			<stop  offset="0.2727" style="stop-color:#921D90"/>
			<stop  offset="0.3423" style="stop-color:#851D97"/>
			<stop  offset="0.4122" style="stop-color:#7C209D"/>
			<stop  offset="0.526" style="stop-color:#6426AE"/>
			<stop  offset="0.6508" style="stop-color:#4230C5"/>
			<stop  offset="0.7123" style="stop-color:#3C39CC"/>
			<stop  offset="0.8102" style="stop-color:#2A50E0"/>
			<stop  offset="0.8792" style="stop-color:#1B64F2"/>
		</radialGradient>
		<path fill="url(#SVGID_00000160166773578265496920000017749501836101986742_)" d="M500.2,0L67.3,249.9V749l432.2,251l432.7-250.9
			l0.5-499.2L500.2,0z M892.9,726.9L500,953.7L107.1,726.8V273.2L500,46.3l392.9,226.9V726.9L892.9,726.9z"/>
	</g>
	<g opacity="0.2">
		<polygon fill="#FFFFFF" points="852.1,296.7 852.1,703.3 500,906.6 147.9,703.3 147.9,296.7 500,93.4 		"/>
	</g>
</g>
<g>
	<polygon fill="#DDDDDD" points="422.6,448.7 356.3,556.5 462.9,553.9 397.9,831.2 541.8,492.6 459.5,494.7 594.6,168.8 	"/>
	<polygon fill="#FFFFFF" points="529.6,446.1 594.6,168.8 459.5,494.7 541.8,492.6 397.9,831.2 569.9,551.3 636.2,443.5 
		550.2,445.6 	"/>
</g>
<g>
	<path fill="#FFFFFF" d="M621.6,622c-1.5,1.6-3,3.1-4.6,4.6c0.6-0.9,1.4-1.7,2.1-2.5C619.9,623.4,620.8,622.7,621.6,622z"/>
	<path fill="#FFFFFF" d="M465.1,340.7l26.7-43.4c-110.9,4.5-199.7,96.1-199.7,208.1c0,82.2,47.9,153.5,117.3,187.3l9.4-40
		c-30.9-17.2-55.9-43.8-71-76c-1.7-3.6-3.2-7.2-4.7-10.9c-0.4-1.1-0.9-2.2-1.3-3.4c-1.7-4.6-3.2-9.4-4.4-14.2
		c-3.6-13.7-5.5-28.1-5.5-42.9C331.9,424.6,389.1,356.9,465.1,340.7z"/>
	<path fill="#FFFFFF" d="M500,46.3L107.1,273.2v453.7L500,953.7l392.9-226.8V273.2L500,46.3z M852.1,703.3L790.3,739l-28.7-28.7
		c-10.4-10.4-25.2-13.9-38.5-10.3l-62.2-62.2c29.8-36,47.7-82.2,47.7-132.4c0-86.3-52.8-160.5-127.8-192l-9.2,39.5
		c32,15,58.5,39.7,75.7,70.4c4,7.2,7.6,14.7,10.5,22.5c7,18.6,10.9,38.7,10.9,59.7c0,45.2-18,86.4-47.1,116.7
		c-1.5,1.6-3,3.1-4.6,4.6c-26.2,25.3-60.6,42.1-98.8,46.2l-25,40.7c2.3,0.1,4.7,0.1,7.1,0.1c50.3,0,96.4-17.9,132.4-47.7l62.2,62.2
		c-3.6,13.3-0.1,28.1,10.3,38.5l13.6,13.6L500,906.6L147.9,703.3V296.7L500,93.4l352.1,203.3V703.3z"/>
</g>
</svg>
