<svg width="16" height="16" viewBox="0 0 16 16" fill="none" xmlns="http://www.w3.org/2000/svg">
<rect x="9" y="1" width="1" height="1" transform="rotate(180 9 1)" fill="#3F4D5A"/>
<rect x="9" y="15" width="1" height="1" transform="rotate(-180 9 15)" fill="#3F4D5A"/>
<rect x="6" y="1" width="1" height="1" fill="#3F4D5A"/>
<rect x="9" y="16" width="1" height="1" transform="rotate(-180 9 16)" fill="#3F4D5A"/>
<rect x="7" y="1" width="1" height="1" fill="#3F4D5A"/>
<rect x="8" y="1" width="1" height="1" fill="#3F4D5A"/>
<rect x="8" y="2" width="1" height="3" fill="#3F4D5A"/>
<rect x="10" y="15" width="1" height="1" transform="rotate(-180 10 15)" fill="#3F4D5A"/>
<rect x="6" y="2" width="1" height="1" fill="#3F4D5A"/>
<rect x="10" y="14" width="1" height="1" transform="rotate(-180 10 14)" fill="#3F4D5A"/>
<rect x="5" y="2" width="1" height="1" fill="#3F4D5A"/>
<rect x="9" y="2" width="1" height="1" fill="#3F4D5A"/>
<rect x="9" y="1" width="1" height="1" fill="#3F4D5A"/>
<rect x="9" width="1" height="1" fill="#3F4D5A"/>
<rect x="9" y="3" width="1" height="1" fill="#3F4D5A"/>
<rect x="9" y="4" width="1" height="1" fill="#3F4D5A"/>
<rect x="8" y="5" width="1" height="1" fill="#3F4D5A"/>
<rect x="7" y="5" width="1" height="1" fill="#3F4D5A"/>
<rect x="8" y="6" width="1" height="1" fill="#3F4D5A"/>
<rect x="9" y="6" width="1" height="1" fill="#3F4D5A"/>
<rect x="10" y="7" width="3" height="1" fill="#3F4D5A"/>
<rect x="6" y="12" width="1" height="1" fill="#3F4D5A"/>
<rect x="6" y="11" width="1" height="1" fill="#3F4D5A"/>
<rect x="7" y="10" width="1" height="1" fill="#3F4D5A"/>
<rect x="12" y="9" width="1" height="1" fill="#3F4D5A"/>
<rect x="11" y="10" width="1" height="1" fill="#3F4D5A"/>
<rect x="8" y="10" width="1" height="1" fill="#3F4D5A"/>
<rect x="7" y="9" width="1" height="1" fill="#3F4D5A"/>
<rect x="6" y="9" width="1" height="1" fill="#3F4D5A"/>
<rect x="3" y="6" width="1" height="1" fill="#3F4D5A"/>
<rect x="4" y="5" width="1" height="1" fill="#3F4D5A"/>
<rect x="5" y="4" width="1" height="1" fill="#3F4D5A"/>
<rect x="6" y="3" width="1" height="1" fill="#3F4D5A"/>
<rect x="7" y="2" width="1" height="1" fill="#3F4D5A"/>
<rect x="3" y="8" width="3" height="1" fill="#3F4D5A"/>
<rect x="10" y="11" width="1" height="1" fill="#3F4D5A"/>
<rect x="9" y="12" width="1" height="1" fill="#3F4D5A"/>
<rect x="8" y="13" width="1" height="1" fill="#3F4D5A"/>
<rect x="7" y="11" width="1" height="4" fill="#3F4D5A"/>
<rect x="6" y="13" width="1" height="1" fill="#3F4D5A"/>
<rect x="6" y="14" width="1" height="1" fill="#3F4D5A"/>
<rect x="11" y="13" width="1" height="1" transform="rotate(-180 11 13)" fill="#3F4D5A"/>
<rect x="5" y="3" width="1" height="1" fill="#3F4D5A"/>
<rect x="12" y="13" width="1" height="1" transform="rotate(-180 12 13)" fill="#3F4D5A"/>
<rect x="12" y="12" width="1" height="1" transform="rotate(-180 12 12)" fill="#3F4D5A"/>
<rect x="13" y="12" width="1" height="1" transform="rotate(-180 13 12)" fill="#3F4D5A"/>
<rect x="13" y="11" width="1" height="1" transform="rotate(-180 13 11)" fill="#3F4D5A"/>
<rect x="14" y="11" width="1" height="1" transform="rotate(-180 14 11)" fill="#3F4D5A"/>
<rect x="2" y="6" width="1" height="1" fill="#3F4D5A"/>
<rect x="2" y="7" width="1" height="1" fill="#3F4D5A"/>
<rect x="1" y="6" width="1" height="1" fill="#3F4D5A"/>
<rect x="1" y="7" width="1" height="1" fill="#3F4D5A"/>
<rect y="8" width="1" height="1" fill="#3F4D5A"/>
<rect x="2" y="5" width="1" height="1" fill="#3F4D5A"/>
<rect x="3" y="5" width="1" height="1" fill="#3F4D5A"/>
<rect x="3" y="4" width="1" height="1" fill="#3F4D5A"/>
<rect x="4" y="4" width="1" height="1" fill="#3F4D5A"/>
<rect x="14" y="10" width="1" height="1" transform="rotate(-180 14 10)" fill="#3F4D5A"/>
<rect x="11" y="14" width="1" height="1" transform="rotate(-180 11 14)" fill="#3F4D5A"/>
<rect x="4" y="3" width="1" height="1" fill="#3F4D5A"/>
<rect x="14" y="8" width="1" height="1" transform="rotate(-180 14 8)" fill="#3F4D5A"/>
<rect x="1" y="8" width="1" height="1" fill="#3F4D5A"/>
<rect x="15" y="8" width="1" height="1" transform="rotate(-180 15 8)" fill="#3F4D5A"/>
<rect x="15" y="9" width="1" height="1" transform="rotate(-180 15 9)" fill="#3F4D5A"/>
<rect x="16" y="8" width="1" height="1" transform="rotate(-180 16 8)" fill="#3F4D5A"/>
<rect x="14" y="9" width="1" height="1" transform="rotate(-180 14 9)" fill="#3F4D5A"/>
<rect x="2" y="8" width="1" height="1" fill="#3F4D5A"/>
<rect x="10" y="6" width="6" height="1" fill="#3F4D5A"/>
<rect x="6" y="10" width="6" height="1" transform="rotate(180 6 10)" fill="#3F4D5A"/>
<rect x="8" y="16" width="1" height="1" transform="rotate(-180 8 16)" fill="#3F4D5A"/>
<rect x="7" width="1" height="1" fill="#3F4D5A"/>
</svg>
